<svg width="185" height="48" viewBox="0 0 185 48" fill="none" xmlns="http://www.w3.org/2000/svg">
<path d="M67.1131 32.7493C65.8389 32.7493 64.7448 32.4695 63.8308 31.91C62.9222 31.3505 62.2214 30.5777 61.7284 29.5916C61.2409 28.6 60.9972 27.4588 60.9972 26.168C60.9972 24.8717 61.2464 23.7278 61.745 22.7362C62.2436 21.739 62.9472 20.9634 63.8557 20.4094C64.7697 19.8499 65.85 19.5702 67.0964 19.5702C68.1324 19.5702 69.0492 19.7613 69.8469 20.1435C70.6502 20.5202 71.2901 21.0548 71.7665 21.7473C72.2429 22.4342 72.5143 23.2375 72.5808 24.1571H69.7057C69.5893 23.5422 69.3124 23.0298 68.8747 22.6198C68.4426 22.2043 67.8637 21.9966 67.138 21.9966C66.5231 21.9966 65.983 22.1628 65.5176 22.4952C65.0523 22.822 64.6894 23.2929 64.429 23.9078C64.1742 24.5227 64.0468 25.2595 64.0468 26.1182C64.0468 26.9879 64.1742 27.7358 64.429 28.3618C64.6839 28.9822 65.0412 29.4614 65.501 29.7994C65.9663 30.1317 66.512 30.2979 67.138 30.2979C67.5812 30.2979 67.9773 30.2148 68.3263 30.0487C68.6808 29.8769 68.9772 29.6304 69.2154 29.3091C69.4536 28.9878 69.617 28.5972 69.7057 28.1374H72.5808C72.5088 29.0404 72.2429 29.8409 71.7831 30.5389C71.3233 31.2314 70.6973 31.7743 69.9051 32.1676C69.1129 32.5554 68.1822 32.7493 67.1131 32.7493ZM80.0183 32.7493C78.7719 32.7493 77.6916 32.4751 76.7776 31.9266C75.8635 31.3782 75.1544 30.6109 74.6503 29.6249C74.1517 28.6388 73.9024 27.4865 73.9024 26.168C73.9024 24.8496 74.1517 23.6945 74.6503 22.7029C75.1544 21.7113 75.8635 20.9413 76.7776 20.3928C77.6916 19.8444 78.7719 19.5702 80.0183 19.5702C81.2648 19.5702 82.345 19.8444 83.2591 20.3928C84.1732 20.9413 84.8795 21.7113 85.3781 22.7029C85.8822 23.6945 86.1343 24.8496 86.1343 26.168C86.1343 27.4865 85.8822 28.6388 85.3781 29.6249C84.8795 30.6109 84.1732 31.3782 83.2591 31.9266C82.345 32.4751 81.2648 32.7493 80.0183 32.7493ZM80.035 30.3395C80.7108 30.3395 81.2759 30.1539 81.7301 29.7827C82.1844 29.406 82.5223 28.9019 82.7439 28.2704C82.971 27.6388 83.0846 26.9353 83.0846 26.1597C83.0846 25.3786 82.971 24.6723 82.7439 24.0408C82.5223 23.4037 82.1844 22.8968 81.7301 22.5201C81.2759 22.1434 80.7108 21.955 80.035 21.955C79.3425 21.955 78.7664 22.1434 78.3066 22.5201C77.8523 22.8968 77.5116 23.4037 77.2845 24.0408C77.0629 24.6723 76.9521 25.3786 76.9521 26.1597C76.9521 26.9353 77.0629 27.6388 77.2845 28.2704C77.5116 28.9019 77.8523 29.406 78.3066 29.7827C78.7664 30.1539 79.3425 30.3395 80.035 30.3395ZM91.0955 25.0213V32.5H88.0874V19.7364H90.9625V21.9052H91.1121C91.4057 21.1906 91.8738 20.6227 92.5164 20.2017C93.1646 19.7807 93.9651 19.5702 94.9179 19.5702C95.7988 19.5702 96.566 19.7585 97.2197 20.1352C97.8789 20.5119 98.3886 21.0576 98.7487 21.7722C99.1143 22.4869 99.2944 23.3538 99.2888 24.3732V32.5H96.2807V24.8385C96.2807 23.9854 96.0591 23.3178 95.6159 22.8359C95.1783 22.3539 94.5717 22.1129 93.7961 22.1129C93.2698 22.1129 92.8017 22.2293 92.3918 22.4619C91.9874 22.6891 91.6689 23.0187 91.4362 23.4508C91.2091 23.8829 91.0955 24.4064 91.0955 25.0213ZM111.835 23.1101L109.093 23.4092C109.015 23.1322 108.879 22.8719 108.685 22.6281C108.497 22.3844 108.242 22.1877 107.921 22.0381C107.6 21.8886 107.206 21.8138 106.741 21.8138C106.115 21.8138 105.589 21.9495 105.162 22.221C104.741 22.4924 104.533 22.8442 104.539 23.2763C104.533 23.6474 104.669 23.9494 104.946 24.182C105.229 24.4147 105.694 24.6058 106.342 24.7554L108.519 25.2207C109.727 25.4811 110.624 25.8938 111.211 26.4589C111.804 27.0239 112.103 27.7635 112.109 28.6776C112.103 29.4808 111.868 30.1899 111.403 30.8048C110.943 31.4142 110.303 31.8906 109.483 32.2341C108.663 32.5776 107.721 32.7493 106.658 32.7493C105.096 32.7493 103.838 32.4224 102.885 31.7688C101.932 31.1095 101.365 30.1927 101.182 29.0183L104.115 28.7357C104.248 29.3119 104.531 29.7467 104.963 30.0403C105.395 30.3339 105.957 30.4808 106.649 30.4808C107.364 30.4808 107.937 30.3339 108.37 30.0403C108.807 29.7467 109.026 29.3839 109.026 28.9518C109.026 28.5862 108.885 28.2842 108.602 28.046C108.325 27.8078 107.893 27.625 107.306 27.4976L105.129 27.0406C103.905 26.7857 102.999 26.3564 102.412 25.7526C101.824 25.1432 101.533 24.3732 101.539 23.4425C101.533 22.6558 101.747 21.9744 102.179 21.3983C102.617 20.8166 103.223 20.3679 103.999 20.0521C104.78 19.7308 105.68 19.5702 106.699 19.5702C108.195 19.5702 109.372 19.8887 110.231 20.5258C111.095 21.1629 111.63 22.0243 111.835 23.1101ZM117.662 32.7576C116.853 32.7576 116.125 32.6136 115.477 32.3255C114.834 32.0319 114.325 31.5998 113.948 31.0292C113.577 30.4586 113.391 29.755 113.391 28.9185C113.391 28.1984 113.524 27.6028 113.79 27.132C114.056 26.6611 114.419 26.2844 114.878 26.0018C115.338 25.7193 115.856 25.506 116.432 25.362C117.014 25.2124 117.615 25.1044 118.236 25.0379C118.983 24.9604 119.59 24.8911 120.055 24.8302C120.521 24.7637 120.859 24.664 121.069 24.531C121.285 24.3925 121.393 24.1793 121.393 23.8912V23.8413C121.393 23.2153 121.208 22.7306 120.837 22.3871C120.465 22.0437 119.931 21.8719 119.233 21.8719C118.496 21.8719 117.912 22.0326 117.479 22.3539C117.053 22.6752 116.765 23.0547 116.615 23.4923L113.807 23.0935C114.028 22.3179 114.394 21.6697 114.903 21.149C115.413 20.6227 116.036 20.2294 116.773 19.969C117.51 19.7031 118.324 19.5702 119.216 19.5702C119.831 19.5702 120.443 19.6422 121.053 19.7862C121.662 19.9303 122.219 20.1685 122.723 20.5009C123.227 20.8277 123.631 21.2737 123.936 21.8387C124.246 22.4038 124.401 23.1101 124.401 23.9577V32.5H121.51V30.7467H121.41C121.227 31.1012 120.969 31.4336 120.637 31.7438C120.31 32.0485 119.898 32.295 119.399 32.4834C118.906 32.6662 118.327 32.7576 117.662 32.7576ZM118.443 30.5472C119.047 30.5472 119.571 30.4281 120.014 30.1899C120.457 29.9462 120.798 29.6249 121.036 29.226C121.28 28.8271 121.402 28.3923 121.402 27.9214V26.4173C121.307 26.4949 121.147 26.5669 120.92 26.6334C120.698 26.6999 120.449 26.758 120.172 26.8079C119.895 26.8577 119.621 26.9021 119.349 26.9408C119.078 26.9796 118.842 27.0129 118.643 27.0406C118.194 27.1015 117.792 27.2012 117.438 27.3397C117.083 27.4782 116.804 27.6721 116.599 27.9214C116.394 28.1651 116.291 28.4809 116.291 28.8687C116.291 29.4227 116.493 29.8409 116.898 30.1234C117.302 30.406 117.817 30.5472 118.443 30.5472ZM126.826 32.5V19.7364H129.834V32.5H126.826ZM128.338 17.9249C127.862 17.9249 127.452 17.767 127.109 17.4512C126.765 17.1299 126.593 16.7449 126.593 16.2962C126.593 15.8419 126.765 15.4569 127.109 15.1411C127.452 14.8198 127.862 14.6592 128.338 14.6592C128.82 14.6592 129.23 14.8198 129.568 15.1411C129.912 15.4569 130.083 15.8419 130.083 16.2962C130.083 16.7449 129.912 17.1299 129.568 17.4512C129.23 17.767 128.82 17.9249 128.338 17.9249ZM137.978 32.7493C136.698 32.7493 135.593 32.4834 134.662 31.9516C133.737 31.4142 133.025 30.6553 132.527 29.6747C132.028 28.6886 131.779 27.5281 131.779 26.193C131.779 24.88 132.028 23.7278 132.527 22.7362C133.031 21.739 133.735 20.9634 134.638 20.4094C135.541 19.8499 136.601 19.5702 137.82 19.5702C138.607 19.5702 139.349 19.6976 140.047 19.9524C140.751 20.2017 141.371 20.5895 141.908 21.1158C142.451 21.642 142.878 22.3124 143.188 23.1267C143.498 23.9355 143.654 24.8994 143.654 26.0185V26.9408H133.192V24.9133H140.77C140.765 24.3371 140.64 23.8247 140.396 23.376C140.152 22.9217 139.812 22.5644 139.374 22.304C138.942 22.0437 138.438 21.9135 137.862 21.9135C137.247 21.9135 136.707 22.0631 136.241 22.3622C135.776 22.6558 135.413 23.0436 135.153 23.5256C134.898 24.002 134.768 24.5255 134.762 25.0961V26.8661C134.762 27.6084 134.898 28.2455 135.169 28.7773C135.441 29.3036 135.82 29.708 136.308 29.9905C136.795 30.2675 137.366 30.406 138.02 30.406C138.457 30.406 138.853 30.345 139.208 30.2232C139.562 30.0957 139.87 29.9102 140.13 29.6664C140.391 29.4227 140.587 29.1207 140.72 28.7607L143.529 29.0764C143.352 29.8187 143.014 30.4669 142.515 31.0209C142.022 31.5693 141.391 31.9959 140.62 32.3006C139.85 32.5997 138.97 32.7493 137.978 32.7493ZM148.606 25.0213V32.5H145.598V19.7364H148.473V21.9052H148.623C148.917 21.1906 149.385 20.6227 150.027 20.2017C150.676 19.7807 151.476 19.5702 152.429 19.5702C153.31 19.5702 154.077 19.7585 154.731 20.1352C155.39 20.5119 155.9 21.0576 156.26 21.7722C156.625 22.4869 156.805 23.3538 156.8 24.3732V32.5H153.792V24.8385C153.792 23.9854 153.57 23.3178 153.127 22.8359C152.689 22.3539 152.083 22.1129 151.307 22.1129C150.781 22.1129 150.313 22.2293 149.903 22.4619C149.498 22.6891 149.18 23.0187 148.947 23.4508C148.72 23.8829 148.606 24.4064 148.606 25.0213ZM164.825 32.7493C163.551 32.7493 162.457 32.4695 161.543 31.91C160.634 31.3505 159.934 30.5777 159.441 29.5916C158.953 28.6 158.709 27.4588 158.709 26.168C158.709 24.8717 158.959 23.7278 159.457 22.7362C159.956 21.739 160.659 20.9634 161.568 20.4094C162.482 19.8499 163.562 19.5702 164.809 19.5702C165.844 19.5702 166.761 19.7613 167.559 20.1435C168.362 20.5202 169.002 21.0548 169.479 21.7473C169.955 22.4342 170.226 23.2375 170.293 24.1571H167.418C167.301 23.5422 167.024 23.0298 166.587 22.6198C166.155 22.2043 165.576 21.9966 164.85 21.9966C164.235 21.9966 163.695 22.1628 163.23 22.4952C162.764 22.822 162.402 23.2929 162.141 23.9078C161.886 24.5227 161.759 25.2595 161.759 26.1182C161.759 26.9879 161.886 27.7358 162.141 28.3618C162.396 28.9822 162.753 29.4614 163.213 29.7994C163.678 30.1317 164.224 30.2979 164.85 30.2979C165.293 30.2979 165.689 30.2148 166.038 30.0487C166.393 29.8769 166.689 29.6304 166.928 29.3091C167.166 28.9878 167.329 28.5972 167.418 28.1374H170.293C170.221 29.0404 169.955 29.8409 169.495 30.5389C169.035 31.2314 168.409 31.7743 167.617 32.1676C166.825 32.5554 165.894 32.7493 164.825 32.7493ZM177.814 32.7493C176.534 32.7493 175.429 32.4834 174.498 31.9516C173.573 31.4142 172.861 30.6553 172.362 29.6747C171.864 28.6886 171.615 27.5281 171.615 26.193C171.615 24.88 171.864 23.7278 172.362 22.7362C172.867 21.739 173.57 20.9634 174.473 20.4094C175.376 19.8499 176.437 19.5702 177.656 19.5702C178.442 19.5702 179.185 19.6976 179.883 19.9524C180.586 20.2017 181.207 20.5895 181.744 21.1158C182.287 21.642 182.713 22.3124 183.024 23.1267C183.334 23.9355 183.489 24.8994 183.489 26.0185V26.9408H173.027V24.9133H180.606C180.6 24.3371 180.475 23.8247 180.232 23.376C179.988 22.9217 179.647 22.5644 179.21 22.304C178.777 22.0437 178.273 21.9135 177.697 21.9135C177.082 21.9135 176.542 22.0631 176.077 22.3622C175.611 22.6558 175.249 23.0436 174.988 23.5256C174.733 24.002 174.603 24.5255 174.598 25.0961V26.8661C174.598 27.6084 174.733 28.2455 175.005 28.7773C175.276 29.3036 175.656 29.708 176.143 29.9905C176.631 30.2675 177.201 30.406 177.855 30.406C178.293 30.406 178.689 30.345 179.043 30.2232C179.398 30.0957 179.705 29.9102 179.966 29.6664C180.226 29.4227 180.423 29.1207 180.556 28.7607L183.364 29.0764C183.187 29.8187 182.849 30.4669 182.351 31.0209C181.858 31.5693 181.226 31.9959 180.456 32.3006C179.686 32.5997 178.805 32.7493 177.814 32.7493Z" fill="white"/>
<path d="M24.0001 9.6001C16.0321 9.6001 9.6001 16.0321 9.6001 24.0001" stroke="#5BA4A4" stroke-width="1.92" stroke-linecap="round"/>
<path d="M38.4 24.0001C38.4 16.0321 31.968 9.6001 24 9.6001" stroke="#C4D93E" stroke-width="1.92" stroke-linecap="round"/>
<path d="M24 38.4C31.968 38.4 38.4 31.968 38.4 24" stroke="#5BA4A4" stroke-width="1.92" stroke-linecap="round"/>
<path d="M9.6001 24C9.6001 31.968 16.0321 38.4 24.0001 38.4" stroke="#A8C545" stroke-width="1.92" stroke-linecap="round"/>
<path d="M23.9999 14.3999C18.6719 14.3999 14.3999 18.6719 14.3999 23.9999" stroke="#A8C545" stroke-width="1.44" stroke-linecap="round"/>
<path d="M33.6 23.9999C33.6 18.6719 29.328 14.3999 24 14.3999" stroke="#5BA4A4" stroke-width="1.44" stroke-linecap="round"/>
<path d="M24 33.6C29.328 33.6 33.6 29.328 33.6 24" stroke="#C4D93E" stroke-width="1.44" stroke-linecap="round"/>
<path d="M14.3999 24C14.3999 29.328 18.6719 33.6 23.9999 33.6" stroke="#5BA4A4" stroke-width="1.44" stroke-linecap="round"/>
<path d="M24.0001 7.19982C24.7953 7.19982 25.4401 6.55511 25.4401 5.75982C25.4401 4.96453 24.7953 4.31982 24.0001 4.31982C23.2048 4.31982 22.5601 4.96453 22.5601 5.75982C22.5601 6.55511 23.2048 7.19982 24.0001 7.19982Z" fill="#C4D93E"/>
<path d="M35.0398 10.7999C35.7026 10.7999 36.2398 10.2626 36.2398 9.5999C36.2398 8.93716 35.7026 8.3999 35.0398 8.3999C34.3771 8.3999 33.8398 8.93716 33.8398 9.5999C33.8398 10.2626 34.3771 10.7999 35.0398 10.7999Z" fill="#A8C545"/>
<path d="M42.2398 20.1602C42.77 20.1602 43.1998 19.7304 43.1998 19.2002C43.1998 18.67 42.77 18.2402 42.2398 18.2402C41.7096 18.2402 41.2798 18.67 41.2798 19.2002C41.2798 19.7304 41.7096 20.1602 42.2398 20.1602Z" fill="#5BA4A4"/>
<path d="M42.2398 30.2399C43.0351 30.2399 43.6798 29.5952 43.6798 28.7999C43.6798 28.0046 43.0351 27.3599 42.2398 27.3599C41.4445 27.3599 40.7998 28.0046 40.7998 28.7999C40.7998 29.5952 41.4445 30.2399 42.2398 30.2399Z" fill="#C4D93E"/>
<path d="M35.0401 39.3599C35.5703 39.3599 36.0001 38.9301 36.0001 38.3999C36.0001 37.8697 35.5703 37.4399 35.0401 37.4399C34.5099 37.4399 34.0801 37.8697 34.0801 38.3999C34.0801 38.9301 34.5099 39.3599 35.0401 39.3599Z" fill="#A8C545"/>
<path d="M23.9998 43.44C24.6625 43.44 25.1998 42.9028 25.1998 42.24C25.1998 41.5773 24.6625 41.04 23.9998 41.04C23.3371 41.04 22.7998 41.5773 22.7998 42.24C22.7998 42.9028 23.3371 43.44 23.9998 43.44Z" fill="#5BA4A4"/>
<path d="M12.96 39.84C13.7553 39.84 14.4 39.1953 14.4 38.4C14.4 37.6047 13.7553 36.96 12.96 36.96C12.1647 36.96 11.52 37.6047 11.52 38.4C11.52 39.1953 12.1647 39.84 12.96 39.84Z" fill="#C4D93E"/>
<path d="M5.7598 29.7598C6.29 29.7598 6.7198 29.33 6.7198 28.7998C6.7198 28.2697 6.29 27.8398 5.7598 27.8398C5.22961 27.8398 4.7998 28.2697 4.7998 28.7998C4.7998 29.33 5.22961 29.7598 5.7598 29.7598Z" fill="#A8C545"/>
<path d="M5.76006 20.4C6.4228 20.4 6.96006 19.8627 6.96006 19.2C6.96006 18.5373 6.4228 18 5.76006 18C5.09732 18 4.56006 18.5373 4.56006 19.2C4.56006 19.8627 5.09732 20.4 5.76006 20.4Z" fill="#5BA4A4"/>
<path d="M12.96 10.5601C13.4902 10.5601 13.92 10.1303 13.92 9.60014C13.92 9.06994 13.4902 8.64014 12.96 8.64014C12.4298 8.64014 12 9.06994 12 9.60014C12 10.1303 12.4298 10.5601 12.96 10.5601Z" fill="#C4D93E"/>
<path d="M18.2398 12.96C18.77 12.96 19.1998 12.5302 19.1998 12C19.1998 11.4698 18.77 11.04 18.2398 11.04C17.7096 11.04 17.2798 11.4698 17.2798 12C17.2798 12.5302 17.7096 12.96 18.2398 12.96Z" fill="#A8C545"/>
<path d="M29.76 12.7198C30.1577 12.7198 30.48 12.3974 30.48 11.9998C30.48 11.6021 30.1577 11.2798 29.76 11.2798C29.3624 11.2798 29.04 11.6021 29.04 11.9998C29.04 12.3974 29.3624 12.7198 29.76 12.7198Z" fill="#5BA4A4"/>
<path d="M36 19.1998C36.5302 19.1998 36.96 18.77 36.96 18.2398C36.96 17.7096 36.5302 17.2798 36 17.2798C35.4698 17.2798 35.04 17.7096 35.04 18.2398C35.04 18.77 35.4698 19.1998 36 19.1998Z" fill="#C4D93E"/>
<path d="M35.9998 30.48C36.3974 30.48 36.7198 30.1577 36.7198 29.76C36.7198 29.3624 36.3974 29.04 35.9998 29.04C35.6021 29.04 35.2798 29.3624 35.2798 29.76C35.2798 30.1577 35.6021 30.48 35.9998 30.48Z" fill="#A8C545"/>
<path d="M29.7598 36.96C30.29 36.96 30.7198 36.5302 30.7198 36C30.7198 35.4698 30.29 35.04 29.7598 35.04C29.2296 35.04 28.7998 35.4698 28.7998 36C28.7998 36.5302 29.2296 36.96 29.7598 36.96Z" fill="#5BA4A4"/>
<path d="M18.24 36.7198C18.6377 36.7198 18.96 36.3974 18.96 35.9998C18.96 35.6021 18.6377 35.2798 18.24 35.2798C17.8424 35.2798 17.52 35.6021 17.52 35.9998C17.52 36.3974 17.8424 36.7198 18.24 36.7198Z" fill="#C4D93E"/>
<path d="M12 30.7198C12.5302 30.7198 12.96 30.29 12.96 29.7598C12.96 29.2296 12.5302 28.7998 12 28.7998C11.4698 28.7998 11.04 29.2296 11.04 29.7598C11.04 30.29 11.4698 30.7198 12 30.7198Z" fill="#A8C545"/>
<path d="M11.9998 18.96C12.3974 18.96 12.7198 18.6377 12.7198 18.24C12.7198 17.8424 12.3974 17.52 11.9998 17.52C11.6021 17.52 11.2798 17.8424 11.2798 18.24C11.2798 18.6377 11.6021 18.96 11.9998 18.96Z" fill="#5BA4A4"/>
<path d="M24.0001 25.9201C25.0605 25.9201 25.9201 25.0605 25.9201 24.0001C25.9201 22.9397 25.0605 22.0801 24.0001 22.0801C22.9397 22.0801 22.0801 22.9397 22.0801 24.0001C22.0801 25.0605 22.9397 25.9201 24.0001 25.9201Z" fill="#C4D93E"/>
</svg>
