<svg width="48" height="48" viewBox="0 0 48 48" fill="none" xmlns="http://www.w3.org/2000/svg">
<path d="M24.0001 9.6001C16.0321 9.6001 9.6001 16.0321 9.6001 24.0001" stroke="#5BA4A4" stroke-width="1.92" stroke-linecap="round"/>
<path d="M38.4 24.0001C38.4 16.0321 31.968 9.6001 24 9.6001" stroke="#C4D93E" stroke-width="1.92" stroke-linecap="round"/>
<path d="M24 38.4C31.968 38.4 38.4 31.968 38.4 24" stroke="#5BA4A4" stroke-width="1.92" stroke-linecap="round"/>
<path d="M9.6001 24C9.6001 31.968 16.0321 38.4 24.0001 38.4" stroke="#A8C545" stroke-width="1.92" stroke-linecap="round"/>
<path d="M23.9999 14.3999C18.6719 14.3999 14.3999 18.6719 14.3999 23.9999" stroke="#A8C545" stroke-width="1.44" stroke-linecap="round"/>
<path d="M33.6 23.9999C33.6 18.6719 29.328 14.3999 24 14.3999" stroke="#5BA4A4" stroke-width="1.44" stroke-linecap="round"/>
<path d="M24 33.6C29.328 33.6 33.6 29.328 33.6 24" stroke="#C4D93E" stroke-width="1.44" stroke-linecap="round"/>
<path d="M14.3999 24C14.3999 29.328 18.6719 33.6 23.9999 33.6" stroke="#5BA4A4" stroke-width="1.44" stroke-linecap="round"/>
<path d="M24.0001 7.19982C24.7953 7.19982 25.4401 6.55511 25.4401 5.75982C25.4401 4.96453 24.7953 4.31982 24.0001 4.31982C23.2048 4.31982 22.5601 4.96453 22.5601 5.75982C22.5601 6.55511 23.2048 7.19982 24.0001 7.19982Z" fill="#C4D93E"/>
<path d="M35.0398 10.7999C35.7026 10.7999 36.2398 10.2626 36.2398 9.5999C36.2398 8.93716 35.7026 8.3999 35.0398 8.3999C34.3771 8.3999 33.8398 8.93716 33.8398 9.5999C33.8398 10.2626 34.3771 10.7999 35.0398 10.7999Z" fill="#A8C545"/>
<path d="M42.2398 20.1602C42.77 20.1602 43.1998 19.7304 43.1998 19.2002C43.1998 18.67 42.77 18.2402 42.2398 18.2402C41.7096 18.2402 41.2798 18.67 41.2798 19.2002C41.2798 19.7304 41.7096 20.1602 42.2398 20.1602Z" fill="#5BA4A4"/>
<path d="M42.2398 30.2399C43.0351 30.2399 43.6798 29.5952 43.6798 28.7999C43.6798 28.0046 43.0351 27.3599 42.2398 27.3599C41.4445 27.3599 40.7998 28.0046 40.7998 28.7999C40.7998 29.5952 41.4445 30.2399 42.2398 30.2399Z" fill="#C4D93E"/>
<path d="M35.0401 39.3599C35.5703 39.3599 36.0001 38.9301 36.0001 38.3999C36.0001 37.8697 35.5703 37.4399 35.0401 37.4399C34.5099 37.4399 34.0801 37.8697 34.0801 38.3999C34.0801 38.9301 34.5099 39.3599 35.0401 39.3599Z" fill="#A8C545"/>
<path d="M23.9998 43.44C24.6625 43.44 25.1998 42.9028 25.1998 42.24C25.1998 41.5773 24.6625 41.04 23.9998 41.04C23.3371 41.04 22.7998 41.5773 22.7998 42.24C22.7998 42.9028 23.3371 43.44 23.9998 43.44Z" fill="#5BA4A4"/>
<path d="M12.96 39.84C13.7553 39.84 14.4 39.1953 14.4 38.4C14.4 37.6047 13.7553 36.96 12.96 36.96C12.1647 36.96 11.52 37.6047 11.52 38.4C11.52 39.1953 12.1647 39.84 12.96 39.84Z" fill="#C4D93E"/>
<path d="M5.7598 29.7598C6.29 29.7598 6.7198 29.33 6.7198 28.7998C6.7198 28.2697 6.29 27.8398 5.7598 27.8398C5.22961 27.8398 4.7998 28.2697 4.7998 28.7998C4.7998 29.33 5.22961 29.7598 5.7598 29.7598Z" fill="#A8C545"/>
<path d="M5.76006 20.4C6.4228 20.4 6.96006 19.8627 6.96006 19.2C6.96006 18.5373 6.4228 18 5.76006 18C5.09732 18 4.56006 18.5373 4.56006 19.2C4.56006 19.8627 5.09732 20.4 5.76006 20.4Z" fill="#5BA4A4"/>
<path d="M12.96 10.5601C13.4902 10.5601 13.92 10.1303 13.92 9.60014C13.92 9.06994 13.4902 8.64014 12.96 8.64014C12.4298 8.64014 12 9.06994 12 9.60014C12 10.1303 12.4298 10.5601 12.96 10.5601Z" fill="#C4D93E"/>
<path d="M18.2398 12.96C18.77 12.96 19.1998 12.5302 19.1998 12C19.1998 11.4698 18.77 11.04 18.2398 11.04C17.7096 11.04 17.2798 11.4698 17.2798 12C17.2798 12.5302 17.7096 12.96 18.2398 12.96Z" fill="#A8C545"/>
<path d="M29.76 12.7198C30.1577 12.7198 30.48 12.3974 30.48 11.9998C30.48 11.6021 30.1577 11.2798 29.76 11.2798C29.3624 11.2798 29.04 11.6021 29.04 11.9998C29.04 12.3974 29.3624 12.7198 29.76 12.7198Z" fill="#5BA4A4"/>
<path d="M36 19.1998C36.5302 19.1998 36.96 18.77 36.96 18.2398C36.96 17.7096 36.5302 17.2798 36 17.2798C35.4698 17.2798 35.04 17.7096 35.04 18.2398C35.04 18.77 35.4698 19.1998 36 19.1998Z" fill="#C4D93E"/>
<path d="M35.9998 30.48C36.3974 30.48 36.7198 30.1577 36.7198 29.76C36.7198 29.3624 36.3974 29.04 35.9998 29.04C35.6021 29.04 35.2798 29.3624 35.2798 29.76C35.2798 30.1577 35.6021 30.48 35.9998 30.48Z" fill="#A8C545"/>
<path d="M29.7598 36.96C30.29 36.96 30.7198 36.5302 30.7198 36C30.7198 35.4698 30.29 35.04 29.7598 35.04C29.2296 35.04 28.7998 35.4698 28.7998 36C28.7998 36.5302 29.2296 36.96 29.7598 36.96Z" fill="#5BA4A4"/>
<path d="M18.24 36.7198C18.6377 36.7198 18.96 36.3974 18.96 35.9998C18.96 35.6021 18.6377 35.2798 18.24 35.2798C17.8424 35.2798 17.52 35.6021 17.52 35.9998C17.52 36.3974 17.8424 36.7198 18.24 36.7198Z" fill="#C4D93E"/>
<path d="M12 30.7198C12.5302 30.7198 12.96 30.29 12.96 29.7598C12.96 29.2296 12.5302 28.7998 12 28.7998C11.4698 28.7998 11.04 29.2296 11.04 29.7598C11.04 30.29 11.4698 30.7198 12 30.7198Z" fill="#A8C545"/>
<path d="M11.9998 18.96C12.3974 18.96 12.7198 18.6377 12.7198 18.24C12.7198 17.8424 12.3974 17.52 11.9998 17.52C11.6021 17.52 11.2798 17.8424 11.2798 18.24C11.2798 18.6377 11.6021 18.96 11.9998 18.96Z" fill="#5BA4A4"/>
<path d="M24.0001 25.9201C25.0605 25.9201 25.9201 25.0605 25.9201 24.0001C25.9201 22.9397 25.0605 22.0801 24.0001 22.0801C22.9397 22.0801 22.0801 22.9397 22.0801 24.0001C22.0801 25.0605 22.9397 25.9201 24.0001 25.9201Z" fill="#C4D93E"/>
</svg>
