<?xml version="1.0" encoding="UTF-8"?>
<svg id="Camada_1" data-name="Camada 1" xmlns="http://www.w3.org/2000/svg" xmlns:xlink="http://www.w3.org/1999/xlink" viewBox="0 0 155.75 180.5">
 <defs>
 <style>
 .cls-1 {
 fill: #615093;
 }

 .cls-2 {
 fill: #fff;
 }

 .cls-3 {
 fill: #12b9a6;
 }

 .cls-4 {
 clip-path: url(#clippath-1);
 }

 .cls-5 {
 fill: url(#Gradiente_sem_nome_20);
 }

 .cls-6 {
 fill: #50467c;
 }

 .cls-7 {
 clip-path: url(#clippath);
 }
 </style>
 <clipPath id="clippath">
 <ellipse class="cls-6" cx="47.7" cy="97.06" rx="13.28" ry="16.38"/>
 </clipPath>
 <clipPath id="clippath-1">
 <ellipse class="cls-6" cx="107.19" cy="95.46" rx="13.28" ry="16.38"/>
 </clipPath>
 <linearGradient id="Gradiente_sem_nome_20" data-name="Gradiente sem nome 20" x1="70.46" y1="68.63" x2="77.82" y2="-7.6" gradientUnits="userSpaceOnUse">
 <stop offset="0" stop-color="#12b9a6"/>
 <stop offset="1" stop-color="#13b749"/>
 </linearGradient>
 </defs>
 <g>
 <path class="cls-1" d="M147.3,135.54l-2.29,11.1-4.03,19.49c-.98,4.77-6.41,8.81-14.05,10.47-9.2,2-24.5,3.91-49.39,3.91s-39.7-2.04-48.95-4.1c-7.54-1.69-12.88-5.7-13.86-10.43l-5.1-24.67-.14-.69,137.81-5.07Z"/>
 <path class="cls-6" d="M144.67,148.29l-2.14,11.1c-62.23,11.44-116.91-2.63-126.53-5.34-.98-.28-1.5-.44-1.5-.44.1-.04.57-.12,1.36-.25,4.4-.71,18.83-2.7,36.34-5.07h92.46Z"/>
 <path class="cls-1" d="M143.12,154.31s-25.86,5.29-65.71,5.29c-42.28,0-64.7-5.29-64.7-5.29-4.88,0-9.29-2.58-9.87-5.82l-2.67-13.11c-.63-3.52.23-6.06,8.27-8.08,0,0,24.58-5.82,70.7-5.82,41.26,0,68.27,5.82,68.27,5.82,6.45,1.43,8.89,4.91,8.25,8.43l-2.66,12.77c-.58,3.23-5,5.82-9.87,5.82Z"/>
 <ellipse class="cls-6" cx="76.7" cy="132.27" rx="65.99" ry="6.99"/>
 </g>
 <g>
 <path class="cls-3" d="M103.84,133.88h-54.01c-20.03,0-36.41-16.38-36.41-36.41h0c0-20.03,16.38-36.41,36.41-36.41h54.01c4.32,0,8.47.76,12.33,2.16,14.01,5.08,24.08,18.54,24.08,34.25h0c0,20.03-16.38,36.41-36.41,36.41Z"/>
 <g>
 <g>
 <ellipse class="cls-6" cx="47.7" cy="97.06" rx="13.28" ry="16.38"/>
 <g class="cls-7">
 <ellipse class="cls-2" cx="55.46" cy="89.15" rx="9.18" ry="8.93"/>
 </g>
 </g>
 <g>
 <ellipse class="cls-6" cx="107.19" cy="95.46" rx="13.28" ry="16.38"/>
 <g class="cls-4">
 <ellipse class="cls-2" cx="114.94" cy="87.55" rx="9.18" ry="8.93"/>
 </g>
 </g>
 </g>
 <path class="cls-1" d="M77.71,105.8c-2.85,0-5.18-2.32-5.18-5.18,0-.33.27-.59.59-.59s.59.27.59.59c0,2.2,1.79,3.99,3.99,3.99s3.99-1.79,3.99-3.99c0-.33.27-.59.59-.59s.59.27.59.59c0,2.85-2.32,5.18-5.18,5.18Z"/>
 </g>
 <path class="cls-5" d="M73.59,85.2v-26.34c0-1.78-1.44-3.23-3.22-3.23-14.22,0-70.38-2.45-61.15-41.87C15.23-11.89,57.36-1.26,76.17,42.12c.96,2.22,3.9,2.68,5.45.82,9.75-11.73,38.28-41.76,56.51-16.36,14.94,20.81-39.09,26.73-52.34,27.86-1.64.14-2.9,1.48-2.95,3.13l-.76,27.95c-.05,1.89-1.71,3.33-3.58,3.12l-2.04-.23c-1.64-.18-2.87-1.56-2.87-3.21Z"/>
</svg>
